<?xml version="1.0" standalone="no"?>
<!DOCTYPE svg PUBLIC "-//W3C//DTD SVG 20010904//EN"
        "http://www.w3.org/TR/2001/REC-SVG-20010904/DTD/svg10.dtd">
<svg version="1.0" xmlns="http://www.w3.org/2000/svg"
     width="600.000000pt" height="600.000000pt" viewBox="50 50 600.000000 600.000000"
     preserveAspectRatio="xMidYMid meet">
    <g transform="translate(0.000000,700.000000) scale(0.100000,-0.100000)"
       fill="#FFFFFF" stroke="none">
        <path d="M1772 6120 c-273 -39 -525 -191 -701 -425 -222 -295 -262 -729 -97
-1065 53 -108 106 -180 206 -281 145 -146 285 -228 478 -282 70 -19 107 -21
430 -25 l352 -3 0 -524 0 -523 -347 -4 c-323 -4 -354 -6 -433 -27 -389 -104
-688 -420 -771 -816 -17 -77 -17 -323 0 -400 90 -428 426 -756 850 -830 225
-40 485 3 677 110 200 112 395 333 474 537 62 159 70 226 70 586 l0 322 524 0
524 0 4 -347 c4 -339 5 -351 31 -447 97 -362 398 -657 762 -747 237 -59 541
-22 744 92 200 112 385 316 471 518 57 134 74 228 74 406 0 198 -20 289 -98
450 -136 276 -386 485 -673 562 -95 26 -108 27 -445 31 l-348 4 0 523 0 523
358 5 c331 4 363 6 437 26 181 51 341 148 479 291 138 143 215 277 264 460 22
83 25 116 26 260 1 197 -18 288 -90 439 -107 226 -324 437 -546 529 -141 59
-234 76 -408 75 -134 0 -168 -4 -255 -27 -311 -81 -590 -325 -710 -618 -63
-152 -68 -193 -72 -570 l-5 -348 -524 0 -524 0 0 323 c0 358 -8 426 -69 582
-102 264 -360 513 -631 607 -134 46 -349 68 -488 48z m299 -541 c172 -49 325
-220 359 -398 5 -29 10 -181 10 -337 l0 -284 -292 0 c-375 0 -424 11 -558 116
-103 81 -175 210 -189 335 -21 201 51 375 204 487 142 104 296 131 466 81z
m3140 0 c236 -68 401 -332 360 -576 -34 -197 -194 -376 -380 -425 -55 -14
-116 -17 -363 -17 l-298 -1 0 283 c0 313 8 374 58 473 117 230 369 337 623
263z m-1201 -2064 l0 -525 -525 0 -525 0 0 518 c0 285 3 522 7 525 3 4 240 7
525 7 l518 0 0 -525z m-1570 -1335 c0 -172 -4 -310 -11 -342 -20 -96 -65 -175
-148 -258 -89 -90 -152 -124 -271 -147 -111 -22 -214 -8 -316 42 -188 92 -295
264 -295 470 0 199 102 369 280 464 99 52 153 59 474 60 l287 1 0 -290z m2721
276 c211 -45 380 -226 411 -441 48 -340 -262 -643 -599 -586 -209 36 -385 204
-429 410 -10 48 -14 145 -14 349 l0 282 283 0 c203 0 300 -4 348 -14z"/>
    </g>
</svg>
