<?xml version="1.0" encoding="UTF-8" standalone="no"?>
<svg
   width="16"
   height="16"
   viewBox="0 0 17 17"
   version="1.1"
   id="svg5"
   xmlns="http://www.w3.org/2000/svg">
  <defs
     id="defs2">
    <rect
       x="310.38153"
       y="300.73236"
       width="35.380276"
       height="45.029442"
       id="rect6625" />
  </defs>
  <g
     id="layer1">
    <g
       aria-label="KoTi"
       id="text803"
       style="font-size:13.8411px;line-height:1.25;letter-spacing:-0.0276826px;word-spacing:-3.46031px;fill:#ffffff;stroke-width:0.346031">
      <path
         d="m 21.159248,14.106534 h 6.339223 V 12.376397 H 22.889385 V 8.9022805 h 3.114247 V 7.172143 H 22.889385 V 4.2931943 h 4.609086 V 2.5630568 h -6.339223 z"
         style="font-family:Tie;-inkscape-font-specification:Tie"
         id="path5376" />
      <path
         d="m 33.333792,5.4558467 h -0.470597 c -0.470598,0.069205 -0.955036,0.2352987 -1.356428,0.4429152 V 5.4558467 h -1.730138 v 8.6506873 h 1.730138 V 8.002609 c 0,-0.6505317 0.512121,-1.1626524 1.148811,-1.1626524 0.650532,0 1.162653,0.5121207 1.162653,1.1626524 v 6.103925 h 1.730137 V 7.6565815 c 0,-1.2180168 -0.982718,-2.2007348 -2.214576,-2.2007348 z"
         style="font-family:Tie;-inkscape-font-specification:Tie"
         id="path5378" />
      <path
         d="m 37.367175,8.3486365 v 2.8789485 c 0,1.591727 1.287222,2.878949 2.878949,2.878949 1.591726,0 2.878948,-1.287222 2.878948,-2.878949 v -0.138411 h -1.730137 v 0.138411 c 0,0.609009 -0.539803,1.148812 -1.148811,1.148812 -0.636691,0 -1.148812,-0.539803 -1.148812,-1.148812 V 8.3486365 8.2102255 c 0.05536,-0.6090084 0.609009,-1.0796058 1.245699,-1.0242414 0.650532,0.069205 1.093447,0.6090084 1.051924,1.2595401 h 1.730137 C 43.166596,6.8537977 41.948579,5.5250522 40.343011,5.4558467 38.765126,5.4004823 37.43638,6.618499 37.367175,8.2102255 Z"
         style="font-family:Tie;-inkscape-font-specification:Tie"
         id="path5380" />
      <path
         d="M 50.886901,5.4558467 H 49.073717 L 47.675766,10.6601 46.305497,5.4558467 h -1.813184 l 2.090006,7.7786983 c 0.05537,0.02768 0.09689,0.04152 0.138411,0.06921 0.235299,0.110729 0.332187,0.37371 0.235299,0.609009 l -0.12457,0.235298 c -0.179934,0.332187 -0.49828,0.553644 -0.899672,0.553644 l -0.553644,1.647091 c 1.480998,0.276822 2.865108,-0.650532 3.169612,-2.090006 0.01384,-0.06921 0.04152,-0.138411 0.05536,-0.235299 z"
         style="font-family:Tie;-inkscape-font-specification:Tie"
         id="path5382" />
      <path
         d="m 52.126113,8.3486365 v 2.8789485 c 0,1.591727 1.287222,2.878949 2.878949,2.878949 1.591726,0 2.878948,-1.287222 2.878948,-2.878949 v -0.138411 h -1.730137 v 0.138411 c 0,0.609009 -0.539803,1.148812 -1.148811,1.148812 -0.636691,0 -1.148812,-0.539803 -1.148812,-1.148812 V 8.3486365 8.2102255 c 0.05536,-0.6090084 0.609009,-1.0796058 1.245699,-1.0242414 0.650532,0.069205 1.093447,0.6090084 1.051924,1.2595401 H 57.88401 C 57.925534,6.8537977 56.707517,5.5250522 55.101949,5.4558467 53.524064,5.4004823 52.195318,6.618499 52.126113,8.2102255 Z"
         style="font-family:Tie;-inkscape-font-specification:Tie"
         id="path5384" />
      <path
         d="M 59.943304,14.106534 V 2.5630568 h 1.730137 V 14.106534 Z"
         style="font-family:Tie;-inkscape-font-specification:Tie"
         id="path5386" />
      <path
         d="m 63.72214,11.213744 c 0,1.605568 1.287222,2.89279 2.878949,2.89279 1.591726,0 2.878949,-1.287222 2.878949,-2.89279 V 8.3347954 c 0,-1.5917265 -1.287223,-2.8789487 -2.878949,-2.8789487 -1.591727,0 -2.878949,1.2872222 -2.878949,2.8789487 z m 1.730138,0 V 8.3347954 c 0,-0.6505317 0.525961,-1.1488113 1.148811,-1.1488113 0.63669,0 1.148811,0.4982796 1.148811,1.1488113 v 2.8789486 c 0,0.636691 -0.512121,1.162653 -1.148811,1.162653 -0.62285,0 -1.148811,-0.525962 -1.148811,-1.162653 z"
         style="font-family:Tie;-inkscape-font-specification:Tie"
         id="path5388" />
      <path
         d="m 75.276432,5.4558467 c -0.719737,0 -1.397951,0.2076165 -2.006959,0.5398029 V 5.4558467 H 71.539335 V 16.404157 h 1.730138 v -2.837426 c 0.609008,0.332187 1.287222,0.539803 2.006959,0.539803 1.121129,-0.04152 2.034642,-0.955036 2.034642,-2.076165 V 7.5181705 c 0,-1.107288 -0.913513,-2.0346416 -2.034642,-2.0623238 z m 0.304504,2.5467623 v 3.626368 c 0,0.636691 -0.51212,1.148811 -1.162652,1.148811 -0.636691,0 -1.148811,-0.51212 -1.148811,-1.148811 V 8.002609 c 0,-0.6505317 0.51212,-1.1626524 1.148811,-1.1626524 0.650532,0 1.162652,0.5121207 1.162652,1.1626524 z"
         style="font-family:Tie;-inkscape-font-specification:Tie"
         id="path5390" />
      <path
         d="M 84.652477,7.5735349 C 84.334131,6.1340606 82.950021,5.220548 81.482865,5.5112111 80.251007,5.7603509 79.379018,6.8537977 79.379018,8.1133378 h 1.757819 c 0,-0.3598686 0.235299,-0.7058961 0.567485,-0.8443071 0.484439,-0.1799343 1.038083,0.069205 1.218017,0.553644 v 1.1903346 c -1.50868,0.069205 -2.920472,0.8443071 -3.820143,2.1176887 -0.387551,0.899671 -0.221458,1.951595 0.456756,2.699014 0.304504,0.235299 0.692055,0.346028 1.093447,0.346028 0.788943,0.04152 1.577885,-0.179935 2.26994,-0.595168 v 0.525962 h 1.730138 z m -1.730138,2.3945103 v 2.3945098 c -0.387551,0.235299 -0.775101,0.429075 -1.218017,0.49828 l -0.08305,0.01384 c -0.387551,0.08305 -0.830466,-0.138411 -0.941195,-0.553644 -0.02768,-0.207616 -0.02768,-0.401392 0.04152,-0.609008 0.09689,-0.37371 0.304505,-0.692055 0.62285,-0.927354 0.429074,-0.401392 0.982718,-0.678214 1.577885,-0.8166248 z"
         style="font-family:Tie;-inkscape-font-specification:Tie"
         id="path5392" />
      <path
         d="m 86.357748,8.3347954 v 2.8927896 c 0,1.591727 1.287222,2.878949 2.878949,2.878949 1.591726,0 2.878948,-1.287222 2.878948,-2.878949 h -1.730137 c 0,0.609009 -0.512121,1.148812 -1.148811,1.148812 -0.650532,0 -1.148812,-0.539803 -1.148812,-1.148812 V 9.940363 h 4.02776 V 8.3347954 c 0,-1.5917265 -1.287222,-2.8789487 -2.878948,-2.8789487 -1.591727,0 -2.878949,1.2872222 -2.878949,2.8789487 z m 4.02776,0.1107288 H 88.087885 V 8.2102255 c 0.05536,-0.6228495 0.636691,-1.0934469 1.245699,-1.0242414 0.650532,0.069205 1.121129,0.6090084 1.051924,1.2595401 z"
         style="font-family:Tie;-inkscape-font-specification:Tie"
         id="path5394" />
      <path
         d="m 99.756143,2.5630568 h -1.77166 V 6.0925373 C 97.818389,5.9956496 97.652296,5.9264441 97.472362,5.8572386 l -0.678214,-0.276822 c -1.079606,-0.4013919 -2.26994,0.096888 -2.685173,1.1903345 -0.09689,0.2352987 -0.166094,0.4705974 -0.166094,0.7474194 v 4.5121985 c 0,1.121129 0.913513,2.048483 2.034642,2.076165 0.719737,0 1.397951,-0.207616 2.00696,-0.539803 v 0.539803 h 1.77166 z m -1.77166,9.0936022 c 0,0.650532 -0.512121,1.162653 -1.148812,1.162653 -0.622849,0 -1.162652,-0.512121 -1.162652,-1.162653 V 7.9887679 c 0,-0.6366906 0.539803,-1.1488113 1.162652,-1.1488113 0.636691,0 1.148812,0.5121207 1.148812,1.1488113 z"
         style="font-family:Tie;-inkscape-font-specification:Tie"
         id="path5396" />
      <path
         d="m 102.03041,2.5768979 h 1.73014 v 1.7301375 h -1.73014 z m 0,11.5296361 V 5.4558467 h 1.73014 v 8.6506873 z"
         style="font-family:Tie;-inkscape-font-specification:Tie"
         id="path5398" />
      <path
         d="m 111.33184,7.5735349 c -0.31834,-1.4394743 -1.70245,-2.3529869 -3.16961,-2.0623238 -1.23186,0.2491398 -2.10385,1.3425866 -2.10385,2.6021267 h 1.75782 c 0,-0.3598686 0.2353,-0.7058961 0.56749,-0.8443071 0.48444,-0.1799343 1.03808,0.069205 1.21802,0.553644 v 1.1903346 c -1.50868,0.069205 -2.92048,0.8443071 -3.82015,2.1176887 -0.38755,0.899671 -0.22145,1.951595 0.45676,2.699014 0.3045,0.235299 0.69205,0.346028 1.09345,0.346028 0.78894,0.04152 1.57788,-0.179935 2.26994,-0.595168 v 0.525962 h 1.73013 z m -1.73013,2.3945103 v 2.3945098 c -0.38755,0.235299 -0.77511,0.429075 -1.21802,0.49828 l -0.0831,0.01384 c -0.38755,0.08305 -0.83046,-0.138411 -0.94119,-0.553644 -0.0277,-0.207616 -0.0277,-0.401392 0.0415,-0.609008 0.0969,-0.37371 0.30451,-0.692055 0.62285,-0.927354 0.42907,-0.401392 0.98272,-0.678214 1.57789,-0.8166248 z"
         style="letter-spacing:0px"
         id="path5400" />
      <path
         d="m 119.06639,2.5630568 h 6.35306 v 1.7301375 h -4.62292 v 2.8927898 h 3.11425 v 1.7301375 h -3.11425 v 5.1904124 h -1.73014 z"
         style="letter-spacing:0px"
         id="path5402" />
      <path
         d="m 126.90586,8.3347954 v 2.8927896 c 0,1.591727 1.28722,2.878949 2.87895,2.878949 1.59172,0 2.87895,-1.287222 2.87895,-2.878949 h -1.73014 c 0,0.609009 -0.51212,1.148812 -1.14881,1.148812 -0.65053,0 -1.14881,-0.539803 -1.14881,-1.148812 V 9.940363 h 4.02776 V 8.3347954 c 0,-1.5917265 -1.28723,-2.8789487 -2.87895,-2.8789487 -1.59173,0 -2.87895,1.2872222 -2.87895,2.8789487 z m 4.02776,0.1107288 H 128.636 V 8.2102255 c 0.0554,-0.6228495 0.63669,-1.0934469 1.2457,-1.0242414 0.65053,0.069205 1.12112,0.6090084 1.05192,1.2595401 z"
         style="font-family:Tie;-inkscape-font-specification:Tie"
         id="path5404" />
      <path
         d="m 138.26962,5.4558467 h -0.4706 c -0.47059,0.069205 -0.95503,0.2352987 -1.35642,0.4429152 V 5.4558467 h -1.73014 v 8.6506873 h 1.73014 V 8.002609 c 0,-0.6505317 0.51212,-1.1626524 1.14881,-1.1626524 0.65053,0 1.16265,0.5121207 1.16265,1.1626524 v 6.103925 h 1.73014 V 7.6565815 c 0,-1.2180168 -0.98272,-2.2007348 -2.21458,-2.2007348 z"
         style="font-family:Tie;-inkscape-font-specification:Tie"
         id="path5406" />
      <path
         d="m 146.08162,5.4558467 h -0.47059 c -0.4706,0.069205 -0.95504,0.2352987 -1.35643,0.4429152 V 5.4558467 h -1.73014 v 8.6506873 h 1.73014 V 8.002609 c 0,-0.6505317 0.51212,-1.1626524 1.14881,-1.1626524 0.65053,0 1.16265,0.5121207 1.16265,1.1626524 v 6.103925 h 1.73014 V 7.6565815 c 0,-1.2180168 -0.98272,-2.2007348 -2.21458,-2.2007348 z"
         style="font-family:Tie;-inkscape-font-specification:Tie"
         id="path5408" />
      <path
         d="m 150.33646,2.5768979 h 1.73014 v 1.7301375 h -1.73014 z m 0,11.5296361 V 5.4558467 h 1.73014 v 8.6506873 z"
         style="font-family:Tie;-inkscape-font-specification:Tie"
         id="path5410" />
      <path
         d="m 154.11529,8.3486365 v 2.8789485 c 0,1.591727 1.28722,2.878949 2.87895,2.878949 1.59173,0 2.87895,-1.287222 2.87895,-2.878949 v -0.138411 h -1.73014 v 0.138411 c 0,0.609009 -0.5398,1.148812 -1.14881,1.148812 -0.63669,0 -1.14881,-0.539803 -1.14881,-1.148812 V 8.3486365 8.2102255 c 0.0554,-0.6090084 0.60901,-1.0796058 1.2457,-1.0242414 0.65053,0.069205 1.09344,0.6090084 1.05192,1.2595401 h 1.73014 c 0.0415,-1.5917265 -1.1765,-2.920472 -2.78206,-2.9896775 -1.57789,-0.055364 -2.90663,1.1626523 -2.97584,2.7543788 z"
         style="font-family:Tie;-inkscape-font-specification:Tie"
         id="path5412" />
      <path
         d="m 167.23364,7.5735349 c -0.31835,-1.4394743 -1.70246,-2.3529869 -3.16961,-2.0623238 -1.23186,0.2491398 -2.10385,1.3425866 -2.10385,2.6021267 h 1.75782 c 0,-0.3598686 0.2353,-0.7058961 0.56748,-0.8443071 0.48444,-0.1799343 1.03809,0.069205 1.21802,0.553644 v 1.1903346 c -1.50868,0.069205 -2.92047,0.8443071 -3.82014,2.1176887 -0.38755,0.899671 -0.22146,1.951595 0.45675,2.699014 0.30451,0.235299 0.69206,0.346028 1.09345,0.346028 0.78894,0.04152 1.57789,-0.179935 2.26994,-0.595168 v 0.525962 h 1.73014 z m -1.73014,2.3945103 v 2.3945098 c -0.38755,0.235299 -0.7751,0.429075 -1.21802,0.49828 l -0.083,0.01384 c -0.38755,0.08305 -0.83047,-0.138411 -0.9412,-0.553644 -0.0277,-0.207616 -0.0277,-0.401392 0.0415,-0.609008 0.0969,-0.37371 0.3045,-0.692055 0.62285,-0.927354 0.42907,-0.401392 0.98271,-0.678214 1.57788,-0.8166248 z"
         style="font-family:Tie;-inkscape-font-specification:Tie"
         id="path5414" />
    </g>
    <text
       xml:space="preserve"
       transform="scale(0.26458333)"
       id="text6623"
       style="font-style:normal;font-weight:normal;font-size:40px;line-height:1.25;font-family:sans-serif;letter-spacing:-0.08px;white-space:pre;shape-inside:url(#rect6625);fill:#000000;fill-opacity:1;stroke:none" />
    <path
       id="rect1076"
       style="fill:#ffffff;stroke-width:0.263318"
       d="M 0,0 H 16.933332 V 16.933332 H 0 Z" />
    <g
       aria-label="ïº"
       id="text7489"
       style="font-size:17.5741px;line-height:1.25;letter-spacing:-0.0268817px;fill:#64382c;stroke-width:0.439354">
      <path
         d="m 11.006673,9.7366675 h 1.270003 q 1.046895,0 1.793451,0.7551375 0.746556,0.746556 0.746556,1.784869 0,1.038314 -0.746556,1.793451 -0.746556,0.746556 -1.793451,0.746556 -1.038314,0 -1.793451,-0.746556 Q 9.7366693,13.323569 9.7366693,12.276674 V 11.006671 H 7.1966626 v 1.270003 q 0,1.029733 -0.746556,1.78487 -0.7465561,0.755137 -1.7934507,0.755137 -1.0297325,0 -1.7848696,-0.737975 -0.7551371,-0.746556 -0.7551371,-1.802032 0,-1.046894 0.746556,-1.79345 Q 3.6183423,9.7366675 4.6566559,9.7366675 H 5.9266592 V 7.1966608 H 4.6566559 q -1.0383136,0 -1.7934507,-0.7465561 -0.746556,-0.746556 -0.746556,-1.7934506 0,-1.0468947 0.746556,-1.7934507 0.7551371,-0.7465561 1.7934507,-0.7465561 1.0383135,0 1.7848696,0.7465561 0.7551371,0.746556 0.7551371,1.7934507 V 5.9266574 H 9.7366693 V 4.6566541 q 0,-1.0468947 0.7465557,-1.7934507 0.755137,-0.7465561 1.793451,-0.7465561 1.038314,0 1.78487,0.7465561 0.755137,0.746556 0.755137,1.7934507 0,1.0383135 -0.746556,1.7934506 -0.746556,0.7465561 -1.793451,0.7465561 h -1.270003 z m 0,-3.8100101 h 1.270003 q 0.523447,0 0.892435,-0.3775685 0.377568,-0.3775686 0.377568,-0.8924348 0,-0.5148663 -0.377568,-0.8924348 -0.368988,-0.3775686 -0.892435,-0.3775686 -0.523447,0 -0.901016,0.3775686 -0.368987,0.3689874 -0.368987,0.8924348 z M 5.9266592,11.006671 H 4.6566559 q -0.5234473,0 -0.9010159,0.377568 -0.3689875,0.377569 -0.3689875,0.892435 0,0.514866 0.3689875,0.892435 0.3775686,0.377569 0.9010159,0.377569 0.5234473,0 0.8924348,-0.377569 0.3775685,-0.377569 0.3775685,-0.892435 z m 0,-5.0800136 V 4.6566541 q 0,-0.5148663 -0.3775685,-0.8924348 -0.3775686,-0.3775686 -0.8924348,-0.3775686 -0.5062851,0 -0.8924348,0.3689875 -0.3775686,0.3689874 -0.3775686,0.9010159 0,0.5234473 0.3689875,0.9010159 0.3775686,0.3689874 0.9010159,0.3689874 z m 5.0800138,5.0800136 v 1.270003 q 0,0.523448 0.377568,0.901016 0.377569,0.368988 0.892435,0.368988 0.514866,0 0.892435,-0.368988 0.377568,-0.377568 0.377568,-0.901016 0,-0.523447 -0.377568,-0.892435 -0.368988,-0.377568 -0.892435,-0.377568 z M 9.7366693,9.7366675 V 7.1966608 H 7.1966626 v 2.5400067 z"
         style="font-family:Wingdings;-inkscape-font-specification:'Wingdings, Normal';letter-spacing:-0.0268818px"
         id="path5436" />
    </g>
  </g>
</svg>
